# xmcd
#
# Track frame offsets:
#        150
#        22612
#        46660
#        72077
#        93250
#        111765
#        127035
#        147470
#        171062
#        184260
#        207415
#        231940
#        250362
#        280995
#        301955
#        319950
#
# Disc length: 4406 seconds
#
# Revision: 1
# Processed by: cddbd v1.5.1PL0 Copyright (c) Steve Scherf et al.
# Submitted via: ExactAudioCopy v0.95b2
#
DISCID=e3113410
DTITLE=Earl Klugh - Earl Klugh Sper Best
DYEAR=1900
DGENRE=Fusion
TTITLE0=Waltz for Debby
TTITLE1=Captain Caribe
TTITLE2=Living Inside Your Love
TTITLE3=Doc
TTITLE4=Catherine
TTITLE5=Dance With Me
TTITLE6=Alicia
TTITLE7=Rayna
TTITLE8=Mona Lisa
TTITLE9=The Shadow Of Your Smile
TTITLE10=Whiplash
TTITLE11=Crazy For You
TTITLE12=Night Drive
TTITLE13=All The Time
TTITLE14=Take It From The Top
TTITLE15=Main Title (Theme from Marvin and Tige)
EXTD=ID3G: 30
EXTT0=
EXTT1=
EXTT2=
EXTT3=
EXTT4=
EXTT5=
EXTT6=
EXTT7=
EXTT8=
EXTT9=
EXTT10=
EXTT11=
EXTT12=
EXTT13=
EXTT14=
EXTT15=
PLAYORDER=
